<?xml version="1.0" standalone="no"?>
<!DOCTYPE svg PUBLIC "-//W3C//DTD SVG 20010904//EN"
 "http://www.w3.org/TR/2001/REC-SVG-20010904/DTD/svg10.dtd">
<svg version="1.0" xmlns="http://www.w3.org/2000/svg"
 width="512.000000pt" height="512.000000pt" viewBox="0 0 512.000000 512.000000"
 preserveAspectRatio="xMidYMid meet">
<metadata>
Created by potrace 1.11, written by Peter Selinger 2001-2013
</metadata>
<g transform="translate(0.000000,512.000000) scale(0.100000,-0.100000)"
fill="#000000" stroke="none">
<path d="M2307 3917 c-136 -272 -252 -498 -259 -504 -7 -5 -49 -22 -93 -38
-259 -89 -436 -231 -547 -437 -112 -205 -150 -265 -244 -378 -124 -148 -149
-185 -181 -267 -21 -56 -26 -84 -26 -158 1 -231 142 -425 533 -727 47 -36 136
-113 198 -169 253 -233 300 -272 367 -312 149 -87 327 -123 565 -114 176 7
305 37 417 97 93 50 131 80 318 255 83 77 182 165 220 196 39 30 113 90 165
131 120 95 294 276 339 351 70 119 85 171 86 292 0 103 -2 114 -32 177 -40 84
-75 136 -161 235 -100 117 -133 165 -211 311 -86 163 -117 208 -189 279 -98
96 -235 177 -402 237 l-85 31 -68 130 c-37 72 -133 258 -214 415 -206 401
-237 460 -244 460 -4 0 -117 -222 -252 -493z m299 186 c36 -70 138 -269 342
-663 l70 -135 93 -36 c111 -42 160 -66 251 -125 124 -80 199 -168 311 -364 38
-68 168 -246 236 -325 112 -129 147 -236 121 -367 -13 -68 -48 -146 -76 -169
-16 -13 -17 -12 -11 4 4 10 7 28 7 38 0 11 4 18 10 14 13 -8 40 90 40 147 0
79 -27 125 -100 170 l-26 16 4 -70 c3 -49 -1 -82 -13 -113 -23 -61 -37 -66
-18 -7 31 100 3 232 -66 305 -30 33 -97 70 -110 62 -5 -3 -11 0 -13 6 -3 8
-41 14 -103 17 l-100 4 0 -58 c0 -45 -5 -66 -23 -91 -26 -37 -113 -83 -156
-83 -28 0 -29 1 -11 14 11 8 23 12 27 10 4 -3 25 14 47 37 49 50 60 94 37 151
-15 39 -15 43 3 72 43 68 147 142 222 156 65 13 69 17 33 31 -82 32 -147 29
-226 -10 -21 -10 -39 -14 -40 -10 -2 5 -48 -37 -103 -94 -55 -56 -90 -93 -77
-83 31 27 28 15 -5 -15 -14 -13 -23 -18 -19 -11 12 21 -5 13 -48 -21 -103 -82
-272 -175 -386 -212 -117 -38 -206 -39 -319 -2 -141 46 -330 156 -442 256 -31
28 -58 48 -61 46 -2 -2 -33 29 -68 71 -36 42 -69 73 -77 70 -7 -3 -33 4 -59
15 -58 26 -147 29 -191 5 -18 -9 -33 -18 -33 -20 0 -3 24 -9 53 -15 65 -14
174 -87 212 -141 26 -37 27 -44 17 -79 -7 -21 -12 -51 -12 -67 0 -34 36 -98
50 -89 6 4 9 1 8 -7 -2 -7 17 -23 42 -35 36 -18 40 -22 21 -23 -78 -1 -173 64
-191 131 -6 23 -8 54 -5 71 l7 30 -95 -4 c-59 -2 -101 -9 -111 -17 -9 -7 -16
-10 -16 -5 0 5 -5 1 -11 -9 -6 -9 -15 -15 -20 -11 -20 12 -84 -43 -114 -97
-26 -48 -29 -64 -30 -144 0 -49 3 -103 8 -120 7 -28 6 -29 -7 -11 -25 32 -41
121 -29 170 l10 43 -28 -16 c-15 -8 -25 -20 -22 -26 4 -5 3 -7 -2 -3 -13 13
-42 -10 -60 -48 -10 -21 -17 -60 -17 -94 0 -64 30 -172 45 -163 6 3 7 1 3 -6
-4 -6 -2 -19 5 -27 6 -8 9 -17 6 -20 -9 -10 -56 69 -78 131 -16 47 -20 78 -17
145 4 105 32 166 127 278 94 110 214 281 274 391 62 115 174 234 285 305 78
50 222 118 287 135 l40 11 219 440 c120 242 221 440 225 440 4 0 25 -35 47
-77z m-1039 -1369 c-3 -3 -12 -4 -19 -1 -8 3 -5 6 6 6 11 1 17 -2 13 -5z
m2030 0 c-3 -3 -12 -4 -19 -1 -8 3 -5 6 6 6 11 1 17 -2 13 -5z m-157 -67 c0
-2 -10 -12 -22 -23 l-23 -19 19 23 c18 21 26 27 26 19z m-60 -61 c0 -2 -8 -10
-17 -17 -16 -13 -17 -12 -4 4 13 16 21 21 21 13z m-1416 -177 c36 -39 66 -77
66 -84 0 -19 -48 -27 -86 -15 -40 14 -84 63 -84 95 0 31 17 75 29 75 5 0 39
-32 75 -71z m62 39 l29 -33 -32 29 c-31 28 -38 36 -30 36 2 0 16 -15 33 -32z
m1244 -9 c9 -34 8 -45 -7 -72 -25 -43 -83 -71 -128 -63 -19 4 -35 11 -35 16 0
12 140 160 151 160 4 0 13 -18 19 -41z m87 -36 c-2 -16 -4 -5 -4 22 0 28 2 40
4 28 2 -13 2 -35 0 -50z m-237 43 c0 -2 -8 -10 -17 -17 -16 -13 -17 -12 -4 4
13 16 21 21 21 13z m601 -13 c13 -16 12 -17 -3 -4 -17 13 -22 21 -14 21 2 0
10 -8 17 -17z m-1625 -55 l29 -33 -32 29 c-31 28 -38 36 -30 36 2 0 16 -15 33
-32z m1734 -82 c0 -12 -5 -7 -19 24 -11 24 -11 24 3 6 9 -11 16 -24 16 -30z
m-1655 14 c10 -11 16 -20 13 -20 -3 0 -13 9 -23 20 -10 11 -16 20 -13 20 3 0
13 -9 23 -20z m815 16 c0 -2 -8 -10 -17 -17 -16 -13 -17 -12 -4 4 13 16 21 21
21 13z m-40 -30 c0 -2 -8 -10 -17 -17 -16 -13 -17 -12 -4 4 13 16 21 21 21 13z
m-1439 -88 l20 -28 -23 -9 c-60 -22 -66 -23 -63 -4 2 10 7 35 10 56 7 43 17
40 56 -15z m750 35 c13 -16 12 -17 -3 -4 -10 7 -18 15 -18 17 0 8 8 3 21 -13z
m1412 -35 c4 -28 5 -53 4 -55 -2 -1 -22 5 -45 14 l-42 16 33 38 c17 20 35 38
38 38 3 1 9 -22 12 -51z m-1372 5 c13 -16 12 -17 -3 -4 -10 7 -18 15 -18 17 0
8 8 3 21 -13z m465 -38 c-11 -8 -25 -15 -30 -15 -6 1 0 7 14 15 32 19 40 18
16 0z m-346 -15 c8 -5 11 -10 5 -10 -5 0 -17 5 -25 10 -8 5 -10 10 -5 10 6 0
17 -5 25 -10z m1537 -12 c-3 -8 -6 -5 -6 6 -1 11 2 17 5 13 3 -3 4 -12 1 -19z
m-2780 -55 c-3 -10 -5 -4 -5 12 0 17 2 24 5 18 2 -7 2 -21 0 -30z m2790 -75
c-2 -24 -4 -7 -4 37 0 44 2 63 4 43 2 -21 2 -57 0 -80z m-2250 3 l62 -48 -46
-44 c-25 -24 -58 -68 -75 -96 -16 -29 -34 -55 -38 -58 -20 -13 -54 190 -44
269 9 81 10 82 47 52 17 -14 60 -48 94 -75z m1827 68 c14 -73 -5 -270 -30
-311 -3 -5 -27 23 -53 64 -26 40 -63 86 -81 102 l-35 29 35 26 c18 14 59 47
89 73 31 26 59 47 62 48 4 0 9 -14 13 -31z m-2029 -83 c0 -52 -3 -92 -7 -88
-8 8 -58 138 -58 151 0 8 37 29 55 30 6 1 10 -37 10 -93z m2131 84 c23 -9 26
-15 21 -43 -3 -17 -16 -57 -30 -87 l-25 -55 -1 98 c-1 53 1 97 3 97 3 0 17 -5
32 -10z m-1417 -64 c15 -8 33 -22 40 -30 11 -13 10 -17 -3 -22 -19 -7 -69 23
-61 37 4 5 -4 13 -17 18 -18 8 -19 10 -5 10 10 1 30 -5 46 -13z m691 -17 c-25
-29 -80 -48 -80 -30 0 19 64 59 97 60 7 1 -1 -13 -17 -30z m-1743 -26 c-3 -10
-5 -2 -5 17 0 19 2 27 5 18 2 -10 2 -26 0 -35z m768 -102 c39 -18 106 -45 150
-59 44 -15 81 -28 83 -28 2 -1 -24 -37 -56 -80 -74 -99 -128 -192 -157 -268
l-22 -60 -16 30 c-33 64 -69 202 -74 285 -6 88 4 223 15 217 4 -2 39 -19 77
-37z m1328 -116 c1 -120 -21 -225 -67 -327 -23 -50 -25 -51 -32 -28 -16 55
-108 220 -164 295 -33 44 -60 83 -60 86 0 4 21 12 48 19 26 6 94 33 152 59
126 56 122 60 123 -104z m111 76 c24 -33 55 -90 70 -127 l27 -67 -65 -96 c-67
-100 -161 -211 -177 -211 -5 0 2 22 16 49 13 28 37 89 52 138 23 77 27 106 27
230 1 79 2 143 4 143 1 0 22 -27 46 -59z m-1597 -73 c1 -137 29 -271 77 -366
31 -62 32 -66 6 -50 -46 29 -220 267 -220 301 0 29 64 156 100 200 17 20 33
37 34 37 1 0 3 -55 3 -122z m773 -13 c85 0 188 4 229 8 l74 8 -7 -55 c-9 -79
-60 -227 -116 -333 -43 -82 -147 -234 -171 -249 -19 -11 -131 141 -194 266
-46 92 -98 246 -110 323 l-6 48 73 -8 c40 -4 143 -8 228 -8z m-325 -175 c44
-158 126 -314 233 -444 23 -28 39 -52 37 -54 -9 -9 -172 21 -250 45 -44 14
-119 45 -167 70 l-88 45 0 52 c0 90 36 176 134 323 47 72 63 89 68 75 4 -9 18
-60 33 -112z m732 75 c88 -117 162 -282 163 -362 0 -35 -5 -45 -30 -63 -85
-61 -287 -129 -429 -145 l-65 -7 46 53 c61 73 118 160 160 244 36 71 90 228
103 298 4 21 11 35 14 30 4 -4 21 -26 38 -48z m-407 -709 c140 0 201 3 250 16
36 9 67 15 69 12 9 -9 -109 -54 -181 -68 -97 -20 -168 -20 -266 0 -66 13 -202
65 -202 77 0 2 33 -6 73 -17 59 -16 104 -20 257 -20z"/>
<path d="M2570 3305 c0 -157 3 -285 8 -285 6 0 357 226 410 265 24 17 23 17
-155 134 -98 65 -197 130 -220 144 l-43 27 0 -285z"/>
<path d="M2885 3096 c-52 -41 -326 -236 -331 -236 -3 0 -76 53 -162 118 -180
135 -188 140 -176 119 36 -61 339 -507 345 -507 4 0 33 39 65 88 32 48 111
167 176 265 65 97 117 177 116 177 -2 0 -16 -11 -33 -24z"/>
<path d="M850 1882 c-47 -89 -179 -259 -272 -351 -84 -84 -212 -189 -280 -230
-75 -45 -39 -56 172 -55 224 2 503 53 720 133 124 46 122 44 70 88 -156 131
-279 274 -340 395 l-39 78 -31 -58z m93 -270 c-7 -8 -25 -29 -40 -48 -35 -47
-136 -125 -208 -162 -60 -31 -173 -68 -181 -59 -2 2 22 21 53 42 82 54 244
219 283 288 l32 57 38 -52 c32 -44 35 -54 23 -66z m54 -64 c-3 -8 -6 -5 -6 6
-1 11 2 17 5 13 3 -3 4 -12 1 -19z"/>
<path d="M4224 1888 c-47 -107 -168 -255 -304 -376 -47 -42 -86 -79 -88 -82
-8 -21 270 -109 455 -145 242 -46 503 -57 565 -24 22 12 22 13 4 23 -68 39
-231 171 -304 244 -93 95 -226 266 -270 349 -15 29 -30 53 -33 53 -3 0 -14
-19 -25 -42z m78 -248 c45 -68 184 -204 262 -256 31 -20 54 -39 52 -41 -8 -9
-121 28 -181 59 -76 39 -170 113 -215 169 -19 24 -38 46 -42 47 -4 2 9 28 29
58 32 46 40 52 48 38 6 -9 27 -42 47 -74z"/>
</g>
</svg>
