<svg id="svg2"
  xmlns:svg="http://www.w3.org/2000/svg"
  xmlns="http://www.w3.org/2000/svg"
  xmlns:xlink="http://www.w3.org/1999/xlink"
  xmlns:sodipodi="http://sodipodi.sourceforge.net/DTD/sodipodi-0.dtd"
  xmlns:inkscape="http://www.inkscape.org/namespaces/inkscape" version="1.1" xml:space="preserve" viewBox="0 0 105.096 98.764892" sodipodi:docname="house.ai.svg" inkscape:version="1.0 (6e3e5246a0, 2020-05-07)">
  <g id="g10" inkscape:groupmode="layer" inkscape:label="assets-complement" transform="matrix(1.3333333,0,0,-1.3333333,-137.70346,1734.9659)">
    <g id="g3033">
      <g id="g288" transform="translate(142.6887,1281.7498)">
        <path id="path290" style="
                        fill: none;
                        stroke-width: 7;
                        stroke-linecap: butt;
                        stroke-linejoin: miter;
                        stroke-miterlimit: 10;
                        stroke-dasharray: none;
                        stroke-opacity: 1;
                      " d="m 0,0 c 0,0 -19.75,-18.911 -25.071,-24.57 v -20.205 c 0,-3.478 2.845,-6.324 6.323,-6.324 h 9.892 v 14.694 c 0,2.74 2.22,4.961 4.96,4.961 h 7.185 c 2.739,0 4.96,-2.221 4.96,-4.961 v -14.694 h 10.499 c 3.478,0 6.323,2.846 6.323,6.324 V -24.57 C 20.246,-18.911 0,0 0,0 Z" />
      </g>
      <g id="g292" transform="translate(106.7776,1262.8386)">
        <path id="path294" style="
                        fill: none;
                        stroke-width: 7;
                        stroke-linecap: round;
                        stroke-linejoin: round;
                        stroke-miterlimit: 10;
                        stroke-dasharray: none;
                        stroke-opacity: 1;
                      " d="M 0,0 7.005,7.005 35.911,35.911 62.567,9.255 71.822,0" />
      </g>
      <g id="g296" transform="translate(164.0446,1275.6204)">
        <path id="path298" style="fill-opacity: 1; fill-rule: nonzero; stroke: none;" d="m 0,0 -8.992,8.618 v 9.621 c 0,1.114 0.971,2.017 2.168,2.017 h 4.656 C -0.971,20.256 0,19.353 0,18.239 Z" />
      </g>
    </g>
  </g>
</svg>
