<?xml version="1.0" encoding="UTF-8" standalone="no"?>
<svg
   xmlns:svg="http://www.w3.org/2000/svg"
   xmlns="http://www.w3.org/2000/svg"
   xmlns:xlink="http://www.w3.org/1999/xlink"
   xmlns:sodipodi="http://sodipodi.sourceforge.net/DTD/sodipodi-0.dtd"
   xmlns:inkscape="http://www.inkscape.org/namespaces/inkscape"
   version="1.1"
   id="svg2"
   xml:space="preserve"
   width="119.77595"
   height="68.818001"
   viewBox="0 0 119.77595 68.817999"
   sodipodi:docname="arrow.svg"
   inkscape:version="1.0 (6e3e5246a0, 2020-05-07)"><g
     id="g10"
     inkscape:groupmode="layer"
     inkscape:label="assets-complement"
     transform="matrix(1.3333333,0,0,-1.3333333,-402.69492,1697.389)"><g
       id="g1245"><g
         transform="translate(387.2859,1248.2483)"
         id="g364"><path
           id="path366"
           style="fill:#000000;fill-opacity:1;fill-rule:nonzero;stroke:none"
           d="m 0,0 h -15.672 c -3.39,0 -5.596,3.568 -4.079,6.6 l 7.835,15.672 c 1.682,3.362 6.479,3.362 8.159,0 L 4.08,6.6 C 5.596,3.568 3.391,0 0,0" /></g><g
         id="g1230"><g
           id="g340"
           transform="translate(326.4099,1229.1453)"><path
             d="m 0,0 c 0,-4.262 -3.455,-7.717 -7.717,-7.717 -4.262,0 -7.716,3.455 -7.716,7.717 0,4.262 3.454,7.716 7.716,7.716 C -3.455,7.716 0,4.262 0,0"
             style="fill:#000000;fill-opacity:1;fill-rule:nonzero;stroke:none"
             id="path342" /></g><g
           id="g344"
           transform="translate(350.2024,1252.9285)"><path
             d="m 0,0 c 0,-4.262 -3.455,-7.716 -7.717,-7.716 -4.262,0 -7.717,3.454 -7.717,7.716 0,4.262 3.455,7.717 7.717,7.717 C -3.455,7.717 0,4.262 0,0"
             style="fill:#000000;fill-opacity:1;fill-rule:nonzero;stroke:none"
             id="path346" /></g><g
           id="g384"
           transform="translate(305.5212,1240.6072)"><path
             d="m 0,0 c 0,-6.805 5.517,-12.321 12.321,-12.321 6.805,0 12.322,5.516 12.322,12.321"
             style="fill:none;stroke:#000000;stroke-width:7;stroke-linecap:round;stroke-linejoin:round;stroke-miterlimit:10;stroke-dasharray:none;stroke-opacity:1"
             id="path386" /></g><g
           id="g388"
           transform="translate(330.1643,1240.6072)"><path
             d="M 0,0 C 0,6.805 5.516,12.321 12.321,12.321 19.126,12.321 24.643,6.805 24.643,0"
             style="fill:none;stroke:#000000;stroke-width:7;stroke-linecap:round;stroke-linejoin:round;stroke-miterlimit:10;stroke-dasharray:none;stroke-opacity:1"
             id="path390" /></g><g
           id="g392"
           transform="translate(354.8069,1240.6072)"><path
             d="m 0,0 c 0,-6.805 5.517,-12.321 12.321,-12.321 6.805,0 12.322,5.516 12.322,12.321"
             style="fill:none;stroke:#000000;stroke-width:7;stroke-linecap:round;stroke-linejoin:round;stroke-miterlimit:10;stroke-dasharray:none;stroke-opacity:1"
             id="path394" /></g></g></g></g></svg>
