<?xml version="1.0" encoding="UTF-8" standalone="no"?>
<svg
   xmlns:svg="http://www.w3.org/2000/svg"
   xmlns="http://www.w3.org/2000/svg"
   xmlns:xlink="http://www.w3.org/1999/xlink"
   xmlns:sodipodi="http://sodipodi.sourceforge.net/DTD/sodipodi-0.dtd"
   xmlns:inkscape="http://www.inkscape.org/namespaces/inkscape"
   version="1.1"
   id="svg2"
   xml:space="preserve"
   viewBox="0 0 80.472001 96.27268"
   sodipodi:docname="bell.svg"
   inkscape:version="1.0 (6e3e5246a0, 2020-05-07)">
   <g id="g10"
     inkscape:groupmode="layer"
     inkscape:label="assets-complement"
     transform="matrix(1.3333333,0,0,-1.3333333,-860.93638,1551.0032)"><g
       id="g1809"><g
         transform="translate(683.5954,1098.7639)"
         id="g328"><path
           id="path330"
           style="fill-opacity:1;fill-rule:nonzero;stroke:none"
           d="m 0,0 c 0,-4.262 -3.455,-7.716 -7.716,-7.716 -4.262,0 -7.717,3.454 -7.717,7.716 0,4.262 3.455,7.717 7.717,7.717 C -3.455,7.717 0,4.262 0,0" /></g><g
         transform="translate(669.3903,1155.9119)"
         id="g372"><path
           id="path374"
           style="fill-opacity:1;fill-rule:nonzero;stroke:none"
           d="m 0,0 2.41,4.819 c 1.68,3.362 6.477,3.362 8.158,0 l 2.589,-5.178 z" /></g><g
         transform="translate(649.2023,1106.2419)"
         id="g1942"><path
           id="path1944"
           style="fill:none;stroke-width:7;stroke-linecap:round;stroke-linejoin:round;stroke-miterlimit:10;stroke-dasharray:none;stroke-opacity:1"
           d="m 0,0 c 0,0 12.408,4.67 14.771,41.28 0.265,4.106 7.232,7.478 11.906,7.478 4.673,0 11.7,-3.369 11.906,-7.478 C 40.408,4.67 53.354,0 53.354,0 53.354,-4.113 0,-4.113 0,0 Z" /></g></g></g></svg>
