<?xml version="1.0" encoding="UTF-8" standalone="no"?>
<svg
   xmlns:svg="http://www.w3.org/2000/svg"
   xmlns="http://www.w3.org/2000/svg"
   xmlns:xlink="http://www.w3.org/1999/xlink"
   xmlns:sodipodi="http://sodipodi.sourceforge.net/DTD/sodipodi-0.dtd"
   xmlns:inkscape="http://www.inkscape.org/namespaces/inkscape"
   version="1.1"
   id="svg2"
   xml:space="preserve"
   width="94.572395"
   height="85.518661"
   viewBox="0 0 94.572393 85.518662"
   sodipodi:docname="shark-swim.svg"
   inkscape:version="1.0 (6e3e5246a0, 2020-05-07)">
   <g id="g10"
     inkscape:groupmode="layer"
     inkscape:label="assets-complement"
     transform="matrix(1.3333333,0,0,-1.3333333,-865.83527,1717.4234)"><g
       id="g1345"><g
         transform="translate(685.7175,1266.0735)"
         id="g440"><path
           id="path442"
           style="fill:#000000;fill-opacity:1;fill-rule:nonzero;stroke:none"
           d="m 0,0 c -0.392,-0.4 -0.91,-0.601 -1.429,-0.601 -0.505,0 -1.01,0.19 -1.399,0.572 -3.008,2.945 -6.202,3.401 -6.233,3.404 -1.097,0.132 -1.879,1.128 -1.748,2.225 0.132,1.096 1.13,1.879 2.225,1.747 C -8.401,7.325 -4.047,6.763 -0.029,2.829 0.76,2.056 0.773,0.789 0,0 m -17.516,10.767 c -1.894,-0.532 -2.643,-2.759 -1.488,-4.351 7.113,-9.816 -0.192,-23.173 -0.192,-23.173 0,0 14.861,7.757 18.471,7.703 3.423,-0.051 7.661,-6.563 10.889,-7.703 3.001,-1.059 7.94,0 7.94,0 -12.047,28.373 -28.26,29.589 -35.62,27.524" /></g><g
         transform="translate(702.8195,1236.3083)"
         id="g460"><path
           id="path462"
           style="fill:#000000;fill-opacity:1;fill-rule:nonzero;stroke:none"
           d="m 0,0 c -7.376,0 -10.837,3.693 -13.127,6.137 l -0.479,0.51 c -1.774,1.893 -2.195,2.342 -4.371,2.342 -2.086,0 -2.499,-0.425 -4.232,-2.211 L -23.114,5.85 C -25.375,3.522 -28.794,0 -35.954,0 -43.33,0 -46.791,3.692 -49.08,6.135 l -0.236,0.252 c -1.095,1.164 -1.673,2.689 -1.624,4.291 0.049,1.602 0.719,3.089 1.887,4.187 1.115,1.051 2.574,1.63 4.109,1.63 1.648,0 3.241,-0.689 4.371,-1.889 l 0.246,-0.261 C -38.552,12.45 -38.131,12 -35.954,12 c 2.086,0 2.498,0.425 4.233,2.211 l 0.904,0.928 c 2.259,2.328 5.678,5.85 12.84,5.85 7.375,0 10.835,-3.692 13.125,-6.135 l 0.48,-0.51 C -2.598,12.45 -2.176,12 0,12 c 2.086,0 2.499,0.425 4.234,2.212 l 0.468,0.48 c 1.144,1.165 2.664,1.803 4.286,1.803 1.583,0 3.076,-0.611 4.206,-1.72 2.36,-2.319 2.393,-6.126 0.075,-8.485 L 12.841,5.851 C 10.582,3.523 7.163,0 0,0" /></g><g
         transform="translate(684.8425,1259.7971)"
         id="g464"><path
           id="path466"
           style="fill:#171335;fill-opacity:1;fill-rule:nonzero;stroke:none"
           d="m 0,0 c -8.219,0 -12.236,-4.138 -14.637,-6.611 l -0.429,-0.442 -0.463,-0.474 c -1.419,-1.462 -1.419,-1.462 -2.448,-1.462 -1.093,0 -1.093,0 -2.546,1.551 l -0.25,0.267 c -1.602,1.702 -3.859,2.677 -6.194,2.677 -2.174,0 -4.242,-0.82 -5.825,-2.311 -1.651,-1.553 -2.601,-3.66 -2.67,-5.929 -0.069,-2.27 0.75,-4.431 2.305,-6.084 l 0.231,-0.246 c 2.426,-2.589 6.49,-6.925 14.949,-6.925 8.217,0 12.235,4.138 14.636,6.611 l 0.431,0.442 0.463,0.475 C -1.029,-17 -1.029,-17 0,-17 c 1.093,0 1.093,0 2.547,-1.55 l 0.203,-0.218 c 0.015,-0.015 0.029,-0.031 0.043,-0.046 l 0.237,-0.251 c 2.424,-2.587 6.487,-6.924 14.947,-6.924 8.22,0 12.238,4.14 14.639,6.614 l 0.427,0.438 c 3.27,3.329 3.223,8.721 -0.12,12.006 -1.6,1.572 -3.715,2.437 -5.957,2.437 -2.299,0 -4.453,-0.903 -6.064,-2.543 l -0.478,-0.491 c -1.418,-1.461 -1.418,-1.461 -2.447,-1.461 -1.093,0 -1.093,0 -2.546,1.552 l -0.245,0.261 c -0.014,0.015 -0.028,0.03 -0.042,0.044 l -0.195,0.208 C 12.521,-4.334 8.458,0 0,0 m 0,-5 c 6.292,0 9.07,-2.963 11.302,-5.344 l 0.234,-0.25 c 0.001,-0.001 0.002,-0.001 0.003,-0.002 l 0.243,-0.259 c 1.893,-2.021 2.936,-3.134 6.195,-3.134 3.144,0 4.168,1.055 6.028,2.971 l 0.464,0.477 c 0.685,0.698 1.591,1.047 2.497,1.047 0.885,0 1.771,-0.334 2.453,-1.004 1.379,-1.355 1.398,-3.57 0.043,-4.949 l -0.434,-0.446 c -2.204,-2.271 -4.946,-5.096 -11.051,-5.096 -6.293,0 -9.071,2.965 -11.303,5.347 l -0.235,0.25 c -0.001,10e-4 -0.002,0.002 -0.002,0.003 l -0.242,0.258 C 4.302,-13.112 3.259,-12 0,-12 c -3.143,0 -4.167,-1.055 -6.026,-2.97 l -0.466,-0.477 -0.436,-0.448 c -2.203,-2.269 -4.946,-5.094 -11.049,-5.094 -6.293,0 -9.07,2.964 -11.302,5.345 l -0.236,0.252 c -1.324,1.408 -1.257,3.623 0.151,4.947 0.676,0.636 1.537,0.951 2.397,0.951 0.931,0 1.862,-0.37 2.55,-1.102 l 0.245,-0.26 c 1.893,-2.02 2.936,-3.133 6.195,-3.133 3.143,0 4.167,1.055 6.027,2.97 l 0.466,0.478 0.435,0.447 C -8.846,-7.824 -6.104,-5 0,-5" /></g><g
         transform="translate(664.8952,1284.5676)"
         id="g468"><path
           id="path470"
           style="fill:none;stroke:#000000;stroke-width:7;stroke-linecap:round;stroke-linejoin:round;stroke-miterlimit:10;stroke-dasharray:none;stroke-opacity:1"
           d="m 0,0 c -4.815,0 -8.754,-3.939 -8.754,-8.754 v -39.631 c 0,-4.815 3.939,-8.754 8.754,-8.754 h 39.631 c 4.815,0 8.754,3.939 8.754,8.754 V -8.754 C 48.385,-3.939 44.446,0 39.631,0" /></g></g></g></svg>
