<?xml version="1.0" encoding="UTF-8" standalone="no"?>
<svg
   xmlns="http://www.w3.org/2000/svg"
   xmlns:xlink="http://www.w3.org/1999/xlink"
   xmlns:sodipodi="http://sodipodi.sourceforge.net/DTD/sodipodi-0.dtd"
   xmlns:inkscape="http://www.inkscape.org/namespaces/inkscape"
   version="1.1"
   id="svg2"
   xml:space="preserve"
   viewBox="0 0 112.57994 98.230681"
   sodipodi:docname="cart.svg"
   inkscape:version="1.0 (6e3e5246a0, 2020-05-07)">
   <g id="g10"
     inkscape:groupmode="layer"
     inkscape:label="assets-complement"
     transform="matrix(1.3333333,0,0,-1.3333333,-725.55964,1553.4573)"><g
       id="g1801"><g
         transform="translate(572.6369,1099.136)"
         id="g332"><path
           id="path334"
           style="fill-opacity:1;fill-rule:nonzero;stroke:none"
           d="m 0,0 c 0,-4.262 -3.455,-7.716 -7.716,-7.716 -4.262,0 -7.717,3.454 -7.717,7.716 0,4.262 3.455,7.717 7.717,7.717 C -3.455,7.717 0,4.262 0,0" /></g><g
         transform="translate(602.4553,1099.136)"
         id="g336"><path
           id="path338"
           style="fill-opacity:1;fill-rule:nonzero;stroke:none"
           d="m 0,0 c 0,-4.262 -3.455,-7.716 -7.716,-7.716 -4.262,0 -7.717,3.454 -7.717,7.716 0,4.262 3.455,7.717 7.717,7.717 C -3.455,7.717 0,4.262 0,0" /></g><g
         transform="translate(571.5173,1165.093)"
         id="g376"><path
           id="path378"
           style="fill-opacity:1;fill-rule:nonzero;stroke:none"
           d="m 0,0 h 15.673 c 3.39,0 5.595,-3.568 4.079,-6.601 l -7.836,-15.672 c -1.681,-3.361 -6.478,-3.361 -8.159,0 L -4.079,-6.601 C -5.595,-3.568 -3.39,0 0,0" /></g><g
         transform="translate(625.1047,1152.696)"
         id="g1634"><path
           id="path1636"
           style="fill:none;stroke-width:7;stroke-linecap:round;stroke-linejoin:round;stroke-miterlimit:10;stroke-dasharray:none;stroke-opacity:1"
           d="m 0,0 h -16.048 l -12.197,-37.694 h -35.512 l -14.045,28.201 h 12.895" /></g></g></g></svg>
