<svg id="svg2"
  xmlns:svg="http://www.w3.org/2000/svg"
  xmlns="http://www.w3.org/2000/svg"
  xmlns:xlink="http://www.w3.org/1999/xlink"
  xmlns:sodipodi="http://sodipodi.sourceforge.net/DTD/sodipodi-0.dtd"
  xmlns:inkscape="http://www.inkscape.org/namespaces/inkscape" version="1.1" xml:space="preserve" viewBox="0 0 113.55866 104.4572" sodipodi:docname="clip.svg" inkscape:version="1.0 (6e3e5246a0, 2020-05-07)">
  <g id="g10" inkscape:groupmode="layer" inkscape:label="assets-complement" transform="matrix(1.3333333,0,0,-1.3333333,-717.55158,1736.362)">
    <g id="g1317">
      <g id="g316" transform="translate(623.3327,1278.1204)">
        <path id="path318" style="fill-opacity: 1; fill-rule: nonzero; stroke: none;" d="m 0,0 c 0,-4.262 -3.455,-7.717 -7.717,-7.717 -4.262,0 -7.716,3.455 -7.716,7.717 0,4.262 3.454,7.716 7.716,7.716 C -3.455,7.716 0,4.262 0,0" />
      </g>
      <g id="g320" transform="translate(623.3327,1255.9983)">
        <path id="path322" style="fill-opacity: 1; fill-rule: nonzero; stroke: none;" d="m 0,0 c 0,-4.262 -3.455,-7.717 -7.717,-7.717 -4.262,0 -7.716,3.455 -7.716,7.717 0,4.262 3.454,7.716 7.716,7.716 C -3.455,7.716 0,4.262 0,0" />
      </g>
      <g id="g324" transform="translate(623.3327,1233.8757)">
        <path id="path326" style="fill-opacity: 1; fill-rule: nonzero; stroke: none;" d="m 0,0 c 0,-4.262 -3.455,-7.716 -7.717,-7.716 -4.262,0 -7.716,3.454 -7.716,7.716 0,4.262 3.454,7.717 7.716,7.717 C -3.455,7.717 0,4.262 0,0" />
      </g>
      <g id="g380" transform="translate(578.7717,1279.1985)">
        <path id="path382" style="fill-opacity: 1; fill-rule: nonzero; stroke: none;" d="m 0,0 h -14.585 c -3.155,0 -5.207,3.32 -3.796,6.142 l 7.292,14.585 c 1.565,3.128 6.028,3.128 7.592,0 L 3.796,6.142 C 5.207,3.32 3.155,0 0,0" />
      </g>
      <g id="g444" transform="translate(561.3766,1251.5037)">
        <path id="path446" style="
                        fill: none;
                        stroke-width: 7;
                        stroke-linecap: round;
                        stroke-linejoin: round;
                        stroke-miterlimit: 10;
                        stroke-dasharray: none;
                        stroke-opacity: 1;
                      " d="m 0,0 c 2.208,2.247 4.024,4.495 8.988,4.495 4.965,0 6.875,-2.248 8.989,-4.495" />
      </g>
      <g id="g448" transform="translate(597.3307,1251.5037)">
        <path id="path450" style="
                        fill: none;
                        stroke-width: 7;
                        stroke-linecap: round;
                        stroke-linejoin: round;
                        stroke-miterlimit: 10;
                        stroke-dasharray: none;
                        stroke-opacity: 1;
                      " d="m 0,0 c -2.208,-2.247 -4.024,-4.494 -8.988,-4.494 -4.965,0 -6.875,2.247 -8.989,4.494" />
      </g>
      <g id="g452" transform="translate(561.3766,1251.5037)">
        <path id="path454" style="
                        fill: none;
                        stroke-width: 7;
                        stroke-linecap: round;
                        stroke-linejoin: round;
                        stroke-miterlimit: 10;
                        stroke-dasharray: none;
                        stroke-opacity: 1;
                      " d="m 0,0 c -2.209,-2.247 -4.024,-4.494 -8.989,-4.494 -4.964,0 -6.874,2.247 -8.989,4.494" />
      </g>
      <g id="g456" transform="translate(550.4177,1284.5676)">
        <path id="path458" style="
                        fill: none;
                        stroke-width: 7;
                        stroke-linecap: round;
                        stroke-linejoin: round;
                        stroke-miterlimit: 10;
                        stroke-dasharray: none;
                        stroke-opacity: 1;
                      " d="m 0,0 c -4.814,0 -8.754,-3.939 -8.754,-8.754 v -39.631 c 0,-4.815 3.94,-8.754 8.754,-8.754 h 39.631 c 4.815,0 8.754,3.939 8.754,8.754 V -8.754 C 48.385,-3.939 44.446,0 39.631,0" />
      </g>
    </g>
  </g>
</svg>
